<svg width="13" height="16" viewBox="0 0 13 16" fill="none" xmlns="http://www.w3.org/2000/svg">
<path fill-rule="evenodd" clip-rule="evenodd" d="M2.65651 7.08317C2.65651 5.22496 4.16289 3.71859 6.0211 3.71859C7.8793 3.71859 9.38568 5.22496 9.38568 7.08317C9.38568 8.94138 7.8793 10.4478 6.0211 10.4478C4.16289 10.4478 2.65651 8.94138 2.65651 7.08317ZM6.0211 4.78109C4.74969 4.78109 3.71901 5.81177 3.71901 7.08317C3.71901 8.35458 4.74969 9.38525 6.0211 9.38525C7.2925 9.38525 8.32318 8.35458 8.32318 7.08317C8.32318 5.81177 7.2925 4.78109 6.0211 4.78109Z" fill="#FF5A3C"/>
<path fill-rule="evenodd" clip-rule="evenodd" d="M0.0175192 6.27344C0.268501 3.22859 2.81294 0.885254 5.86812 0.885254H6.17407C9.22925 0.885254 11.7737 3.22859 12.0247 6.27344C12.1595 7.90909 11.6543 9.53322 10.6154 10.8037L7.22029 14.9558C6.6005 15.7138 5.4417 15.7138 4.8219 14.9558L1.42682 10.8037C0.387937 9.53322 -0.117304 7.90909 0.0175192 6.27344ZM5.86812 1.94775C3.3659 1.94775 1.28198 3.86697 1.07643 6.36073C0.964218 7.72203 1.38472 9.07375 2.24935 10.1312L5.64444 14.2833C5.83911 14.5214 6.20308 14.5214 6.39776 14.2833L9.79284 10.1312C10.6575 9.07375 11.078 7.72203 10.9658 6.36073C10.7602 3.86697 8.67629 1.94775 6.17407 1.94775H5.86812Z" fill="#FF5A3C"/>
</svg>
